<svg id="Layer_1" data-name="Layer 1" xmlns="http://www.w3.org/2000/svg" viewBox="0 0 483.46 264.89"><defs><style>.cls-1{fill:#323e98;}.cls-2{fill:#3dc6f3;}.cls-3{fill:#ee3e45;}</style></defs><rect class="cls-1" x="162.18" width="74.76" height="159.49"/><rect class="cls-2" x="246.91" y="0.26" width="74.76" height="74.76"/><polygon class="cls-3" points="246.91 159.49 246.91 84.73 321.68 84.73 246.91 159.49"/><path class="cls-1" d="M522.56,369.75a4.71,4.71,0,0,1,1.79,1.78,5.21,5.21,0,0,1,0,5.06,4.91,4.91,0,0,1-1.81,1.81,5.09,5.09,0,0,1-5,0,4.79,4.79,0,0,1-1.79-1.81,5,5,0,0,1,1.8-6.83,5,5,0,0,1,2.54-.66A4.92,4.92,0,0,1,522.56,369.75Zm-.36,8.1a4.15,4.15,0,0,0,1.56-1.58,4.33,4.33,0,0,0,.58-2.22,4.42,4.42,0,0,0-.56-2.2,4,4,0,0,0-1.54-1.55,4.31,4.31,0,0,0-2.21-.57,4.37,4.37,0,0,0-2.21.58,4.22,4.22,0,0,0-1.56,1.58,4.3,4.3,0,0,0-.56,2.19,4.37,4.37,0,0,0,.56,2.2,4.17,4.17,0,0,0,1.55,1.57,4.44,4.44,0,0,0,4.39,0Zm0-3.58a1.71,1.71,0,0,1-.88.64l1.29,2h-1l-1.17-1.81H519v1.81h-1v-5.65h2.26a2.47,2.47,0,0,1,1.67.52,1.74,1.74,0,0,1,.62,1.4A2,2,0,0,1,522.25,374.27Zm-1-.26a1,1,0,0,0,.38-.83,1,1,0,0,0-.38-.83,1.7,1.7,0,0,0-1-.29H519v2.25h1.24A1.64,1.64,0,0,0,521.25,374Z" transform="translate(-41.54 -159.62)"/><path class="cls-1" d="M67,342.33A13.76,13.76,0,0,1,72.83,362,12.82,12.82,0,0,1,67,366.79a21.6,21.6,0,0,1-8.87,1.68H50.43v10.6H41.54V340.63H58.17A21.43,21.43,0,0,1,67,342.33Zm-3.27,17.16a6,6,0,0,0,2.09-4.91,6.09,6.09,0,0,0-2.09-5c-1.39-1.16-3.42-1.73-6.09-1.73H50.43v13.34h7.25A9.35,9.35,0,0,0,63.77,359.49Z" transform="translate(-41.54 -159.62)"/><path class="cls-1" d="M104.57,370.83H86.73l-3.41,8.24H74.21l17.13-38.44h8.78l17.19,38.44H108Zm-2.8-6.75-6.09-14.72-6.1,14.72Z" transform="translate(-41.54 -159.62)"/><path class="cls-1" d="M121.32,340.63h17.46A24.55,24.55,0,0,1,149.84,343a17.8,17.8,0,0,1,7.47,6.72,20.46,20.46,0,0,1,0,20.21,17.89,17.89,0,0,1-7.47,6.73,24.55,24.55,0,0,1-11.06,2.39H121.32Zm17,31.13q5.76,0,9.2-3.21a12.76,12.76,0,0,0,0-17.41q-3.43-3.21-9.2-3.21h-8.13v23.83Z" transform="translate(-41.54 -159.62)"/><path class="cls-1" d="M196.43,371.93v7.14H166.67V340.63h29.05v7.14H175.51v8.34h17.85V363H175.51v8.9Z" transform="translate(-41.54 -159.62)"/><path class="cls-1" d="M203.52,340.63h8.89v31.19h19.28v7.25H203.52Z" transform="translate(-41.54 -159.62)"/><path class="cls-3" d="M261.12,347.77v10.16h17.79v7.13H261.12v14h-8.9V340.63h29v7.14Z" transform="translate(-41.54 -159.62)"/><path class="cls-3" d="M311,370.83H293.18l-3.4,8.24h-9.11l17.13-38.44h8.78l17.19,38.44h-9.34Zm-2.8-6.75-6.1-14.72L296,364.08Z" transform="translate(-41.54 -159.62)"/><path class="cls-3" d="M335,377.17a19,19,0,0,1-7.47-7.08,20.64,20.64,0,0,1,0-20.48,19.1,19.1,0,0,1,7.47-7.09A22.18,22.18,0,0,1,345.68,340a22.42,22.42,0,0,1,9,1.76,18,18,0,0,1,6.78,5l-5.71,5.27a12.28,12.28,0,0,0-9.66-4.5,12.85,12.85,0,0,0-6.37,1.56,11.2,11.2,0,0,0-4.37,4.37,13.79,13.79,0,0,0,0,12.74,11.17,11.17,0,0,0,4.37,4.36,12.75,12.75,0,0,0,6.37,1.57,12.22,12.22,0,0,0,9.66-4.56l5.71,5.27a17.82,17.82,0,0,1-6.81,5.11,22.63,22.63,0,0,1-9.06,1.75A22.08,22.08,0,0,1,335,377.17Z" transform="translate(-41.54 -159.62)"/><path class="cls-3" d="M375.05,347.88h-12.3v-7.25h33.5v7.25H384v31.19h-8.9Z" transform="translate(-41.54 -159.62)"/><path class="cls-3" d="M408.3,377.14a19.15,19.15,0,0,1-7.52-7.11,20.43,20.43,0,0,1,0-20.37,19.15,19.15,0,0,1,7.52-7.11,23.79,23.79,0,0,1,21.55,0,19.59,19.59,0,0,1,0,34.59,23.79,23.79,0,0,1-21.55,0Zm16.94-6.56a11.22,11.22,0,0,0,4.31-4.36,13.71,13.71,0,0,0,0-12.74,11.25,11.25,0,0,0-4.31-4.37,12.9,12.9,0,0,0-12.3,0,11.31,11.31,0,0,0-4.31,4.37,13.79,13.79,0,0,0,0,12.74,11.29,11.29,0,0,0,4.31,4.36,12.83,12.83,0,0,0,12.3,0Z" transform="translate(-41.54 -159.62)"/><path class="cls-3" d="M471.31,379.07l-7.41-10.71h-8.18v10.71h-8.9V340.63h16.64a21.46,21.46,0,0,1,8.87,1.7,12.71,12.71,0,0,1,7.82,12.25,12.52,12.52,0,0,1-7.91,12.13l8.63,12.36Zm-2.25-29.46c-1.39-1.16-3.42-1.73-6.1-1.73h-7.24v13.39H463q4,0,6.1-1.75a6.92,6.92,0,0,0,0-9.91Z" transform="translate(-41.54 -159.62)"/><path class="cls-3" d="M505.08,365.45v13.62h-8.9V365.34L481.3,340.63h9.45L501,357.71l10.27-17.08H520Z" transform="translate(-41.54 -159.62)"/><path class="cls-2" d="M135.16,423a11.49,11.49,0,0,1-4.49-4.31,12.59,12.59,0,0,1,0-12.41,11.68,11.68,0,0,1,4.51-4.31,14.11,14.11,0,0,1,11.69-.55,10.8,10.8,0,0,1,4,2.91l-2.82,2.65a8.23,8.23,0,0,0-6.27-2.75,8.87,8.87,0,0,0-4.33,1.06,7.57,7.57,0,0,0-3,2.93,8.94,8.94,0,0,0,0,8.52,7.59,7.59,0,0,0,3,2.94,8.87,8.87,0,0,0,4.33,1.05,8.15,8.15,0,0,0,6.27-2.78l2.82,2.68a10.75,10.75,0,0,1-4,2.92,13.55,13.55,0,0,1-5.29,1A13.2,13.2,0,0,1,135.16,423Z" transform="translate(-41.54 -159.62)"/><path class="cls-2" d="M192.63,423a11.51,11.51,0,0,1-4.53-4.33,12.48,12.48,0,0,1,0-12.37,11.51,11.51,0,0,1,4.53-4.33,14.2,14.2,0,0,1,12.94,0,11.53,11.53,0,0,1,4.53,4.31,12.56,12.56,0,0,1,0,12.41,11.53,11.53,0,0,1-4.53,4.31,14.2,14.2,0,0,1-12.94,0Zm10.7-3.32a7.74,7.74,0,0,0,2.95-2.95,9,9,0,0,0,0-8.49,7.67,7.67,0,0,0-2.95-2.95,9,9,0,0,0-8.46,0,7.67,7.67,0,0,0-3,2.95,9,9,0,0,0,0,8.49,7.74,7.74,0,0,0,3,2.95,9,9,0,0,0,8.46,0Z" transform="translate(-41.54 -159.62)"/><path class="cls-2" d="M252.43,421.77c-1.82-1.82-2.72-4.43-2.72-7.83V400.7h4.36v13.08q0,6.9,6,6.9t5.93-6.9V400.7h4.3v13.24q0,5.1-2.7,7.83T260,424.51C256.76,424.51,254.24,423.6,252.43,421.77Z" transform="translate(-41.54 -159.62)"/><path class="cls-2" d="M325.27,424.17l-4.8-6.87q-.3,0-.9,0h-5.3v6.84h-4.36V400.7h9.66a13,13,0,0,1,5.31,1,7.73,7.73,0,0,1,3.48,2.89,8.1,8.1,0,0,1,1.2,4.46,8,8,0,0,1-1.29,4.56,7.76,7.76,0,0,1-3.7,2.85l5.4,7.71Zm-1.58-18.58a6.7,6.7,0,0,0-4.32-1.21h-5.1v9.36h5.1a6.64,6.64,0,0,0,4.32-1.22,4.8,4.8,0,0,0,0-6.93Z" transform="translate(-41.54 -159.62)"/><path class="cls-2" d="M372.39,404.38h-7.78V400.7h19.92v3.68h-7.78v19.79h-4.36Z" transform="translate(-41.54 -159.62)"/><path class="cls-2" d="M423.15,423.74a11.09,11.09,0,0,1-4-2.05l1.51-3.39a11.84,11.84,0,0,0,3.54,1.86,12.64,12.64,0,0,0,4.21.72,7.31,7.31,0,0,0,3.91-.83,2.55,2.55,0,0,0,1.29-2.22,2.15,2.15,0,0,0-.72-1.66,5.2,5.2,0,0,0-1.83-1c-.74-.25-1.75-.52-3-.84a34.79,34.79,0,0,1-4.34-1.27,7.11,7.11,0,0,1-2.85-2,5.33,5.33,0,0,1-1.19-3.67,6.29,6.29,0,0,1,1.05-3.54,7.1,7.1,0,0,1,3.19-2.53,12.84,12.84,0,0,1,5.21-.94,16.8,16.8,0,0,1,4.23.54,11.63,11.63,0,0,1,3.59,1.54l-1.38,3.39a13.2,13.2,0,0,0-3.22-1.38,12.16,12.16,0,0,0-3.25-.47,6.81,6.81,0,0,0-3.84.87,2.71,2.71,0,0,0-1.26,2.32,2.08,2.08,0,0,0,.72,1.64,5.18,5.18,0,0,0,1.83,1c.74.24,1.74.52,3,.84a32.63,32.63,0,0,1,4.29,1.25,7.49,7.49,0,0,1,2.87,2,5.26,5.26,0,0,1,1.19,3.62,6.13,6.13,0,0,1-1.06,3.52,7.2,7.2,0,0,1-3.2,2.52,13.11,13.11,0,0,1-5.23.94A18.08,18.08,0,0,1,423.15,423.74Z" transform="translate(-41.54 -159.62)"/></svg>