<svg id="Layer_1" data-name="Layer 1" xmlns="http://www.w3.org/2000/svg" viewBox="0 0 1356.86 324.13"><defs><style>.cls-1{fill:#323e98;}.cls-2{fill:#3dc6f3;}.cls-3{fill:#ee3e45;}</style></defs><rect class="cls-1" width="151.93" height="324.13"/><rect class="cls-2" x="172.19" y="0.53" width="151.93" height="151.93"/><polygon class="cls-3" points="172.19 324.13 172.19 172.19 324.13 172.19 172.19 324.13"/><path class="cls-1" d="M1493.48,501.59a9.59,9.59,0,0,1,3.63,3.63,10.56,10.56,0,0,1,0,10.28,10,10,0,0,1-3.67,3.68,10.42,10.42,0,0,1-10.26,0,9.89,9.89,0,0,1-3.65-3.67,10.48,10.48,0,0,1,0-10.22,9.84,9.84,0,0,1,3.66-3.67,10.1,10.1,0,0,1,5.17-1.35A10.2,10.2,0,0,1,1493.48,501.59Zm-.73,16.47a8.64,8.64,0,0,0,3.17-3.21,9.38,9.38,0,0,0,0-9,8.33,8.33,0,0,0-3.13-3.16,8.9,8.9,0,0,0-4.49-1.15,8.8,8.8,0,0,0-4.49,1.18,8.47,8.47,0,0,0-3.17,3.2,9.22,9.22,0,0,0,0,8.92,8.42,8.42,0,0,0,3.15,3.2,9,9,0,0,0,8.93,0Zm.08-7.28a3.42,3.42,0,0,1-1.78,1.31l2.61,4h-2l-2.38-3.67h-3.12v3.67h-2V504.66h4.6a5.14,5.14,0,0,1,3.4,1.06,3.56,3.56,0,0,1,1.24,2.85A3.83,3.83,0,0,1,1492.83,510.78Zm-2-.52a2,2,0,0,0,.76-1.69,2,2,0,0,0-.76-1.68,3.45,3.45,0,0,0-2.14-.59h-2.52v4.56h2.52A3.38,3.38,0,0,0,1490.81,510.26Z" transform="translate(-141.57 -361.94)"/><path class="cls-1" d="M567.75,445.88a26.75,26.75,0,0,1,11.77,9.82,29.43,29.43,0,0,1,0,30.07,26.3,26.3,0,0,1-11.77,9.82,44,44,0,0,1-18,3.4H534v21.54H515.92V442.42h33.81A43.33,43.33,0,0,1,567.75,445.88Zm-6.64,34.87q4.25-3.51,4.24-10t-4.24-10.1q-4.25-3.51-12.39-3.51H534v27.11h14.73Q556.87,484.26,561.11,480.75Z" transform="translate(-141.57 -361.94)"/><path class="cls-1" d="M644,503.79H607.75l-6.92,16.74H582.31l34.82-78.11H635l34.93,78.11h-19Zm-5.69-13.72-12.39-29.91-12.38,29.91Z" transform="translate(-141.57 -361.94)"/><path class="cls-1" d="M678.05,442.42h35.49A49.93,49.93,0,0,1,736,447.27a36.44,36.44,0,0,1,15.18,13.67,41.68,41.68,0,0,1,0,41.07A36.44,36.44,0,0,1,736,515.68a49.93,49.93,0,0,1-22.48,4.85H678.05Zm34.6,63.27q11.72,0,18.69-6.53t7-17.69q0-11.14-7-17.68t-18.69-6.53H696.13v48.43Z" transform="translate(-141.57 -361.94)"/><path class="cls-1" d="M830.71,506v14.51H770.23V442.42h59v14.5H788.19v17h36.27V488H788.19V506Z" transform="translate(-141.57 -361.94)"/><path class="cls-1" d="M845.1,442.42h18.08V505.8h39.17v14.73H845.1Z" transform="translate(-141.57 -361.94)"/><path class="cls-3" d="M962.15,456.92v20.65h36.16v14.51H962.15v28.45H944.08V442.42h59v14.5Z" transform="translate(-141.57 -361.94)"/><path class="cls-3" d="M1063.59,503.79h-36.27l-6.91,16.74h-18.53l34.82-78.11h17.85l34.93,78.11h-19Zm-5.69-13.72-12.39-29.91-12.38,29.91Z" transform="translate(-141.57 -361.94)"/><path class="cls-3" d="M1112.3,516.68a38.8,38.8,0,0,1-15.18-14.39,42,42,0,0,1,0-41.63,38.8,38.8,0,0,1,15.18-14.39,45.08,45.08,0,0,1,21.7-5.19,45.56,45.56,0,0,1,18.36,3.57,36.68,36.68,0,0,1,13.78,10.27l-11.6,10.71a25,25,0,0,0-19.64-9.15,26.11,26.11,0,0,0-13,3.18,22.65,22.65,0,0,0-8.87,8.87,27.94,27.94,0,0,0,0,25.89,22.65,22.65,0,0,0,8.87,8.87,26.11,26.11,0,0,0,13,3.18q11.71,0,19.64-9.26l11.6,10.71a36.13,36.13,0,0,1-13.84,10.38,45.91,45.91,0,0,1-18.41,3.57A44.84,44.84,0,0,1,1112.3,516.68Z" transform="translate(-141.57 -361.94)"/><path class="cls-3" d="M1193.7,457.15h-25V442.42h68.07v14.73h-25v63.38H1193.7Z" transform="translate(-141.57 -361.94)"/><path class="cls-3" d="M1261.27,516.63A39,39,0,0,1,1246,502.17a39.84,39.84,0,0,1,15.29-55.85,48.38,48.38,0,0,1,43.8,0,39.08,39.08,0,0,1,20.87,35.15,39.11,39.11,0,0,1-20.87,35.16,48.38,48.38,0,0,1-43.8,0Zm34.43-13.34a22.84,22.84,0,0,0,8.76-8.87,27.94,27.94,0,0,0,0-25.89,22.84,22.84,0,0,0-8.76-8.87,26.16,26.16,0,0,0-25,0,22.84,22.84,0,0,0-8.76,8.87,27.94,27.94,0,0,0,0,25.89,22.84,22.84,0,0,0,8.76,8.87,26.16,26.16,0,0,0,25,0Z" transform="translate(-141.57 -361.94)"/><path class="cls-3" d="M1389.32,520.53l-15.06-21.76h-16.63v21.76h-18.08V442.42h33.81a43.3,43.3,0,0,1,18,3.46,26.78,26.78,0,0,1,11.78,9.82,27.06,27.06,0,0,1,4.13,15.06,25.46,25.46,0,0,1-16.07,24.66l17.52,25.11Zm-4.58-59.87q-4.23-3.51-12.38-3.51h-14.73v27.23h14.73q8.15,0,12.38-3.57t4.25-10.05Q1389,464.18,1384.74,460.66Z" transform="translate(-141.57 -361.94)"/><path class="cls-3" d="M1458,492.86v27.67h-18.08v-27.9l-30.24-50.21h19.19l20.87,34.7,20.87-34.7h17.74Z" transform="translate(-141.57 -361.94)"/><path class="cls-2" d="M700.49,603.75a23.32,23.32,0,0,1-9.13-8.76,25.56,25.56,0,0,1,0-25.21,23.63,23.63,0,0,1,9.17-8.76,26.92,26.92,0,0,1,13.05-3.17,27.25,27.25,0,0,1,10.7,2,21.82,21.82,0,0,1,8.18,5.93l-5.72,5.39A16.69,16.69,0,0,0,714,565.62a17.88,17.88,0,0,0-8.79,2.14,15.55,15.55,0,0,0-6.07,6,18.27,18.27,0,0,0,0,17.31,15.55,15.55,0,0,0,6.07,6,17.88,17.88,0,0,0,8.79,2.14,16.59,16.59,0,0,0,12.75-5.66l5.72,5.46a21.77,21.77,0,0,1-8.21,5.93,27.54,27.54,0,0,1-10.73,2A26.94,26.94,0,0,1,700.49,603.75Z" transform="translate(-141.57 -361.94)"/><path class="cls-2" d="M817.28,603.75a23.37,23.37,0,0,1-9.2-8.79,25.34,25.34,0,0,1,0-25.15,23.37,23.37,0,0,1,9.2-8.79,28.88,28.88,0,0,1,26.31,0,23.51,23.51,0,0,1,9.2,8.76,25.46,25.46,0,0,1,0,25.21,23.51,23.51,0,0,1-9.2,8.76,28.88,28.88,0,0,1-26.31,0ZM839,597a15.65,15.65,0,0,0,6-6,18.15,18.15,0,0,0,0-17.25,15.65,15.65,0,0,0-6-6,18.29,18.29,0,0,0-17.17,0,15.58,15.58,0,0,0-6,6,18.15,18.15,0,0,0,0,17.25,15.58,15.58,0,0,0,6,6A18.29,18.29,0,0,0,839,597Z" transform="translate(-141.57 -361.94)"/><path class="cls-2" d="M938.8,601.37q-5.52-5.57-5.52-15.92V558.53h8.86v26.58q0,14,12.14,14t12.06-14V558.53h8.72v26.92q0,10.37-5.48,15.92t-15.37,5.55Q944.33,606.92,938.8,601.37Z" transform="translate(-141.57 -361.94)"/><path class="cls-2" d="M1086.84,606.24l-9.75-14c-.41,0-1,.07-1.84.07h-10.77v13.9h-8.86V558.53h19.63a26.41,26.41,0,0,1,10.8,2,15.76,15.76,0,0,1,7.06,5.87,16.33,16.33,0,0,1,2.45,9.06,16.16,16.16,0,0,1-2.62,9.27,15.6,15.6,0,0,1-7.53,5.79l11,15.68Zm-3.2-37.76c-2-1.63-4.94-2.45-8.8-2.45h-10.36v19h10.36c3.86,0,6.8-.83,8.8-2.48a8.68,8.68,0,0,0,3-7.06A8.58,8.58,0,0,0,1083.64,568.48Z" transform="translate(-141.57 -361.94)"/><path class="cls-2" d="M1182.6,566h-15.81v-7.5h40.48V566h-15.81v40.21h-8.86Z" transform="translate(-141.57 -361.94)"/><path class="cls-2" d="M1285.75,605.35a22.27,22.27,0,0,1-8.14-4.15l3.07-6.89a24.07,24.07,0,0,0,7.19,3.79,26.31,26.31,0,0,0,8.55,1.46c3.55,0,6.19-.57,7.94-1.7a5.17,5.17,0,0,0,2.62-4.5,4.35,4.35,0,0,0-1.46-3.38,10.37,10.37,0,0,0-3.71-2.07c-1.51-.5-3.55-1.07-6.14-1.71a71.67,71.67,0,0,1-8.82-2.59,14.41,14.41,0,0,1-5.8-4.05,11,11,0,0,1-2.42-7.47,12.76,12.76,0,0,1,2.15-7.19,14.56,14.56,0,0,1,6.47-5.14,26.12,26.12,0,0,1,10.6-1.91,34.12,34.12,0,0,1,8.59,1.09,23.78,23.78,0,0,1,7.29,3.13l-2.79,6.89a27.52,27.52,0,0,0-6.55-2.8,24.66,24.66,0,0,0-6.61-.95q-5.25,0-7.8,1.77a5.48,5.48,0,0,0-2.56,4.7,4.23,4.23,0,0,0,1.47,3.34,10.49,10.49,0,0,0,3.71,2.05q2.25.75,6.14,1.7a64.24,64.24,0,0,1,8.72,2.56,14.87,14.87,0,0,1,5.83,4,10.7,10.7,0,0,1,2.42,7.36,12.57,12.57,0,0,1-2.15,7.16,14.54,14.54,0,0,1-6.51,5.11,26.34,26.34,0,0,1-10.63,1.91A36.26,36.26,0,0,1,1285.75,605.35Z" transform="translate(-141.57 -361.94)"/></svg>